<svg t="1679491810869" class="icon" viewBox="0 0 1024 1024" version="1.1"
    xmlns="http://www.w3.org/2000/svg" p-id="3749" width="200" height="200">
    <path
        d="M836.294944 346.540597h-2.541893c-18.721387 0-34.07712 5.369288-48.860824 14.532995-12.958126-37.764092-45.890166-64.969711-88.308255-64.96971-18.721387 0-36.619012 5.369288-51.402717 14.532994-12.958126-37.765115-45.890166-64.968687-88.344071-64.968687-16.537651 0-31.930223 4.152577-45.532009 11.419074v-97.185436c0-52.941769-40.055275-95.825462-93.355201-95.825463s-96.540753 42.919509-96.540753 95.825463v372.06083l-58.597583-58.382688c-37.693484-37.44175-104.416118-32.108279-136.524397 0-32.109302 32.109302-53.156664 96.684016-7.194866 142.68163l269.613554 267.823791c5.548366 5.51255 11.669784 10.130731 18.11252 14.031575 49.14735 40.09109 105.490589 63.823608 224.582965 63.823607 272.082792 0 297.283754-146.798391 297.283753-327.852979v-191.685717c-0.037862-52.941769-39.054481-95.861278-92.390223-95.861279m41.522696 287.51118c0 153.205311-0.716314 277.417287-246.454088 277.417287-104.093776 0-166.593226-23.195282-213.950814-70.231551L162.188916 587.697029c-22.586414-22.586414-16.894785-51.438533 1.574868-69.945025 18.470677-18.470677 52.404534-19.114336 70.266344-1.39579 0 0 44.780903 44.494377 83.368756 82.867336a83728.374434 83728.374434 0 0 0 54.838979 54.516638V169.996742c0-25.056676 20.475334-45.388746 45.746903-45.388746 25.27157 0 42.525536 20.332071 42.525536 45.388746v307.699988h0.50142a25.933649 25.933649 0 0 0-0.50142 5.046946c0 13.924127 11.383258 25.235754 25.414833 25.235754 14.031575 0 25.414833-11.275811 25.414833-25.235754 0-1.718131-0.179079-3.400446-0.501421-5.046946h0.501421V351.588567c0-25.056676 18.255783-45.388746 43.527352-45.388746 0 0 44.744064-0.608867 44.744063 45.388746v166.449963h0.501421a25.933649 25.933649 0 0 0-0.501421 5.046946c0 13.925151 11.383258 25.235754 25.414833 25.235754 14.031575 0 25.414833-11.275811 25.414833-25.235754 0-1.718131-0.179079-3.400446-0.50142-5.046946h0.50142V402.02426c0-25.056676 17.969257-45.388746 43.240827-45.388747 0 0 45.675272 2.864234 45.675272 45.388747V548.32123h0.50142a25.933649 25.933649 0 0 0-0.50142 5.046946c0 13.924127 11.383258 25.235754 25.414833 25.235755 14.031575 0 24.77015-11.275811 24.770149-25.235755 0-1.718131-0.179079-3.400446-0.465604-5.046946h0.465604v-99.869568c0-25.057699 18.828834-45.388746 44.100404-45.388747 0 0 44.279483-1.789763 44.279483 45.388747v185.601138h-0.104377M283.715737 302.798351"
        p-id="3750"></path>
</svg>