<?xml version="1.0" ?><svg id="Layer_1" style="enable-background:new 0 0 16 16;" version="1.1" viewBox="0 0 16 16" xml:space="preserve" xmlns="http://www.w3.org/2000/svg" xmlns:xlink="http://www.w3.org/1999/xlink"><style type="text/css">
	.st0{fill:#F0F5EF;}
	.st1{fill:#4D5154;}
	.st2{fill:#D2D2C8;}
</style><path class="st1" d="M14.19,7.631c0.1,0.09,0.16,0.23,0.16,0.37c0,0.14-0.06,0.28-0.16,0.37l-4.95,4.5  c-0.1,0.09-0.22,0.13-0.34,0.13c-0.07,0-0.14-0.01-0.2-0.04c-0.18-0.08-0.3-0.26-0.3-0.46v-2.2H2.15c-0.28,0-0.5-0.22-0.5-0.5v-3.6  c0-0.28,0.22-0.5,0.5-0.5H8.4v-2.2c0-0.2,0.12-0.38,0.3-0.46c0.18-0.08,0.39-0.04,0.54,0.09L14.19,7.631z M9.4,11.371l3.71-3.37  L9.4,4.631v1.57c0,0.28-0.22,0.5-0.5,0.5H2.65v2.6H8.9c0.28,0,0.5,0.22,0.5,0.5V11.371z"/><path class="st2" d="M13.11,8.001l-3.71,3.37v-1.57c0-0.28-0.22-0.5-0.5-0.5H2.65v-2.6H8.9c0.28,0,0.5-0.22,0.5-0.5v-1.57  L13.11,8.001z"/></svg>