<svg id="图层_1" enable-background="new 0 0 156 156" height="512" viewBox="0 0 156 156" width="512" transform="rotate(160)"
    xmlns="http://www.w3.org/2000/svg">
    <g fill="#4a4a4a" opacity=".9">
        <path
            d="m136.6 77.37c.53-.48.62-.68.37-.88-3.97-3.21-20.24-14.59-20.48-14.32-.1.11-.2 2.29-.22 4.86s-.15 4.69-.29 4.75c-.14.05-3.03-.04-6.42-.21s-6.16-.26-6.17-.21 0 .66.02 1.38c.02.71.05 2.68.06 4.41.02 1.81.15 3.12.32 3.12.16 0 1.72-.04 3.48-.08 3.48-.09 8.16.15 8.82.45.49.22.49.22.1 7.18-.29 5.15-.15 6.1.94 6 .66-.06 1.98-.91 2.94-1.88.4-.41 1.65-1.5 2.8-2.44 1.64-1.33 8.44-7.35 13.73-12.13zm-2.63.72c.05-.26.23-.38.59-.4.45-.03.44.01-.08.37-.44.3-.57.3-.51.03zm-11.83-3.21c.61-1.54.64-1.58.95-1.11.35.53.13 1.86-.36 2.18-.18.12-.5.79-.71 1.48s-.53 1.36-.71 1.48c-.44.3.03-1.99.83-4.03z" />
        <path
            d="m96.8 73.19c-.06 1.16-.21 3.31-.34 4.79l-.24 2.68-.88.03c-2.85.1-9.27.5-12.79.79-2.23.19-4.16.29-4.27.24-.27-.13-.79-9.86-.53-10.05.1-.07 1.04-.14 2.07-.16 1.05-.02 5.08-.13 9-.25s7.32-.21 7.59-.21c.44.03.48.29.39 2.14z" />
        <path
            d="m71.07 75.2c-.01 4.01-.26 7.13-.57 7.33-.14.09-.67.18-1.2.2s-4.71.48-9.28 1.03c-6.18.74-8.34.89-8.39.62-.04-.21-.07-2.65-.08-5.46 0-2.81-.04-5.25-.08-5.45-.05-.2.01-.42.12-.5.11-.07 2.63-.25 5.59-.39 2.95-.14 7.09-.36 9.15-.48 2.07-.12 3.99-.22 4.27-.22.43.01.48.33.47 3.32z" />
        <path
            d="m43.78 78.4c.14 2.37.29 4.98.34 5.77l.08 1.44-7.9 1.08c-7.05.97-9.17 1.29-14.88 2.28l-1.51.26-.59-5.5c-.53-4.9-.54-5.52-.09-5.72.28-.13 2.48-.59 4.92-1.02 2.44-.44 6.27-1.14 8.55-1.57 6.37-1.2 10.55-1.81 10.69-1.57.07.12.25 2.18.39 4.55z" />
    </g>
</svg>