<svg id="图层_1" enable-background="new 0 0 156 156" height="512" viewBox="0 0 156 156" width="512" xmlns="http://www.w3.org/2000/svg"><g><g fill="#4a4a4a"><path d="m74 65.25c-3.34-5.68-6.96-11.19-10.69-16.62-1.6-2.33-3.51-5.63-6.83-5.48-7.27.33-14.55 1.2-21.8 1.81-1.71.14-2.28 1.97-1.72 3.11-.19.32-.24.73.02 1.17 2.67 4.52 5.52 8.91 8.45 13.26 2.2 3.26 6.14 6.89 7.15 10.71-2.19-.23-4.3.54-6.47.91-1.92.33-3.9.32-5.84.53-2.16-3.32-4.28-6.66-6.41-10 2.6-1.8 5.32-3.46 8.01-5.13.8-.5.28-1.97-.67-1.58-3.1 1.25-5.84 2.91-8.51 4.89-.39-.61-.78-1.22-1.17-1.83 1.02-.71 2.05-1.41 3.14-2.03 1.28-.73 2.58-1.37 3.74-2.3.63-.51.13-1.74-.68-1.65-2.77.33-5.38 2.1-7.43 4.03-.24-.38-.49-.77-.73-1.15-.01-.02 6.59-9.52 7.14-10.85.57-1.4-1.72-2.32-2.42-1.02-1.95 3.63-4.37 6.41-7.3 9.27-.63.62-1.05 1.95-.82 2.81.77 2.79 3.15 5.49 4.66 7.92 1.5 2.41 6.98 8.5 5.42 11.55-4.76 9.33-17.58 24.77-3.22 31.56 1.39.66 2.97-1.07 1.72-2.24-.73-.68-1.48-1.29-2.17-1.88.41.19.92.18 1.4-.22 1.62-1.33 3.23-2.66 4.85-3.99.81-.67-.24-1.99-1.11-1.44-1.77 1.13-3.54 2.26-5.31 3.4-.74.48-.75 1.23-.4 1.76-1.79-1.61-2.99-3.25-2.08-6.26.04.82.94 1.67 1.95 1.2 2.82-1.32 5.73-2.54 8.19-4.47.68-.53-.07-1.5-.78-1.34-3.07.68-5.9 2.24-8.72 3.58-.17.08-.29.18-.39.29.1-.26.2-.51.33-.79.5-1.08 1.04-2.14 1.59-3.2.27.55 1.08.92 1.72.41 3.19-2.52 6.75-4.3 10.31-6.21.8-.43.24-1.66-.6-1.43-3.99 1.04-7.5 3.27-10.69 5.82.92-1.76 1.86-3.51 2.75-5.29.06-.11.15-.27.23-.4 1.92-1.19 3.87-2.33 5.8-3.49 1.97-1.18 4.28-2.09 5.9-3.74.57-.58-.01-1.48-.76-1.31-2.01.45-3.72 1.76-5.44 2.85-1.17.74-2.31 1.53-3.43 2.34 1.14-1.86 2.34-3.98 2.78-5.68 1.95.14 3.98-.09 5.87-.28 2.17-.22 4.41-.38 6.27-1.5-.09.79-.32 1.58-.76 2.37-6.06 10.83-11.79 21.85-17.9 32.66-.53.94.14 2.22 1.26 2.19 6.59-.13 13.19-.54 19.78-.85 3.16-.15 4.97-1.16 6.87-3.73 4.24-5.71 8.47-11.44 12.69-17.16 2.4-3.26 9.2-9.53 9.2-13.76-.01-4.17-3.93-8.68-5.94-12.1zm-6.51 23.98c-3.12 4.32-6.24 8.64-9.36 12.96-1.26 1.77-2.53 3.52-3.83 5.26-1.38 1.77-6.13 1.37-8.09 1.49-4.07.26-8.15.49-12.22.81 6.52-11.56 13.34-22.94 19.84-34.5.44-.79.25-1.59-.29-2.25-6.31-7.77-12.13-15.85-17.79-24.1 3.89-.32 7.77-.65 11.66-.96 2.55-.2 5.1-.4 7.64-.61 2.99-.24 6.01 5.3 7.49 7.46 2.33 3.4 4.53 6.88 6.71 10.38 1.75 2.82 7.71 9.83 6.04 13.27-1.83 3.77-5.33 7.37-7.8 10.79z"/><path d="m40.45 63.44c-2.7.56-5.09 1.5-7.42 2.99-1.49.95-.09 3.36 1.39 2.37 2.04-1.36 4.26-2.61 6.54-3.53 1.11-.45.71-2.08-.51-1.83z"/><path d="m43.33 67.47c-2.12.9-4.18 1.9-6.25 2.92-1.88.93-.19 3.9 1.65 2.82 1.98-1.16 3.94-2.33 5.85-3.6 1.37-.9.19-2.76-1.25-2.14z"/><path d="m127.97 65.25c-3.34-5.68-6.96-11.19-10.69-16.62-1.6-2.33-3.51-5.63-6.83-5.48-7.27.33-14.55 1.2-21.8 1.81-1.71.14-2.28 1.97-1.72 3.11-.19.32-.24.73.02 1.17 2.67 4.52 5.52 8.91 8.45 13.26 2.2 3.26 6.14 6.89 7.15 10.71-2.19-.23-4.3.54-6.47.91-1.92.33-3.9.32-5.84.53-2.16-3.32-4.28-6.66-6.41-10 2.6-1.8 5.32-3.46 8.01-5.13.8-.5.28-1.97-.67-1.58-3.1 1.25-5.84 2.91-8.51 4.89-.39-.61-.78-1.22-1.17-1.83 1.02-.71 2.05-1.41 3.14-2.03 1.28-.73 2.58-1.37 3.74-2.3.63-.51.13-1.74-.68-1.65-2.77.33-5.38 2.1-7.43 4.03-.24-.38-.49-.77-.73-1.15-.01-.02 6.59-9.52 7.14-10.85.57-1.4-1.72-2.32-2.42-1.02-1.95 3.63-4.37 6.41-7.3 9.27-.63.62-1.05 1.95-.82 2.81.77 2.79 3.15 5.49 4.66 7.92 1.5 2.41 6.98 8.5 5.42 11.55-4.76 9.33-17.58 24.77-3.22 31.56 1.39.66 2.97-1.07 1.72-2.24-.73-.68-1.48-1.29-2.17-1.88.41.19.92.18 1.4-.22 1.62-1.33 3.23-2.66 4.85-3.99.81-.67-.24-1.99-1.11-1.44-1.77 1.13-3.54 2.26-5.31 3.4-.74.48-.75 1.23-.4 1.76-1.79-1.61-2.99-3.25-2.08-6.26.04.82.94 1.67 1.95 1.2 2.82-1.32 5.73-2.54 8.19-4.47.68-.53-.07-1.5-.78-1.34-3.07.68-5.9 2.24-8.72 3.58-.17.08-.29.18-.39.29.1-.26.2-.51.33-.79.51-1.08 1.04-2.14 1.59-3.2.27.55 1.08.92 1.72.41 3.19-2.52 6.75-4.3 10.31-6.21.8-.43.24-1.66-.61-1.43-3.99 1.04-7.5 3.27-10.69 5.82.92-1.76 1.86-3.51 2.75-5.29.06-.11.15-.27.23-.4 1.92-1.19 3.87-2.33 5.8-3.49 1.97-1.18 4.28-2.09 5.9-3.74.57-.58-.01-1.48-.76-1.31-2.01.45-3.72 1.76-5.44 2.85-1.17.74-2.31 1.53-3.43 2.34 1.14-1.86 2.34-3.98 2.78-5.68 1.95.14 3.98-.09 5.87-.28 2.17-.22 4.41-.38 6.27-1.5-.09.79-.32 1.58-.76 2.37-6.06 10.83-11.79 21.85-17.9 32.66-.53.94.14 2.22 1.26 2.19 6.59-.13 13.19-.54 19.78-.85 3.16-.15 4.97-1.16 6.87-3.73 4.24-5.71 8.47-11.44 12.69-17.16 2.4-3.26 9.2-9.53 9.2-13.76 0-4.17-3.92-8.68-5.93-12.1zm-6.5 23.98c-3.12 4.32-6.24 8.64-9.36 12.96-1.26 1.77-2.53 3.52-3.83 5.26-1.38 1.77-6.13 1.37-8.09 1.49-4.07.26-8.15.49-12.22.81 6.52-11.56 13.34-22.94 19.84-34.5.44-.79.25-1.59-.29-2.25-6.31-7.77-12.13-15.85-17.79-24.1 3.89-.32 7.77-.65 11.66-.96 2.55-.2 5.09-.4 7.64-.61 2.99-.24 6.01 5.3 7.49 7.46 2.33 3.4 4.53 6.88 6.71 10.38 1.75 2.82 7.71 9.83 6.04 13.27-1.84 3.77-5.34 7.37-7.8 10.79z"/><path d="m94.42 63.44c-2.7.56-5.09 1.5-7.42 2.99-1.49.95-.09 3.36 1.39 2.37 2.04-1.36 4.26-2.61 6.54-3.53 1.11-.45.71-2.08-.51-1.83z"/><path d="m97.3 67.47c-2.12.9-4.18 1.9-6.25 2.92-1.88.93-.19 3.9 1.65 2.82 1.98-1.16 3.94-2.33 5.85-3.6 1.37-.9.19-2.76-1.25-2.14z"/></g></g></svg>